<?xml version="1.0" encoding="UTF-8" standalone="no"?>
<svg
   xmlns:dc="http://purl.org/dc/elements/1.1/"
   xmlns:cc="http://creativecommons.org/ns#"
   xmlns:rdf="http://www.w3.org/1999/02/22-rdf-syntax-ns#"
   xmlns:svg="http://www.w3.org/2000/svg"
   xmlns="http://www.w3.org/2000/svg"
   xmlns:sodipodi="http://sodipodi.sourceforge.net/DTD/sodipodi-0.dtd"
   xmlns:inkscape="http://www.inkscape.org/namespaces/inkscape"
   inkscape:version="1.0 (4035a4fb49, 2020-05-01)"
   sodipodi:docname="search.svg"
   id="svg4"
   version="1.1"
   height="30px"
   width="30px"
   viewBox="0 0 30 30"
   fill="#000000">
  <metadata
     id="metadata10">
    <rdf:RDF>
      <cc:Work
         rdf:about="">
        <dc:format>image/svg+xml</dc:format>
        <dc:type
           rdf:resource="http://purl.org/dc/dcmitype/StillImage" />
      </cc:Work>
    </rdf:RDF>
  </metadata>
  <defs
     id="defs8" />
  <sodipodi:namedview
     inkscape:current-layer="svg4"
     inkscape:window-maximized="1"
     inkscape:window-y="-11"
     inkscape:window-x="-11"
     inkscape:cy="14.83125"
     inkscape:cx="8.2875"
     inkscape:zoom="26.666667"
     showgrid="false"
     id="namedview6"
     inkscape:window-height="986"
     inkscape:window-width="1920"
     inkscape:pageshadow="2"
     inkscape:pageopacity="0"
     guidetolerance="10"
     gridtolerance="10"
     objecttolerance="10"
     borderopacity="1"
     bordercolor="#666666"
     pagecolor="#ffffff" />
  <path
     id="path2"
     d="M 13 3 C 7.4889971 3 3 7.4889971 3 13 C 3 18.511003 7.4889971 23 13 23 C 15.396508 23 17.597385 22.148986 19.322266 20.736328 L 25.292969 26.707031 A 1.0001 1.0001 0 1 0 26.707031 25.292969 L 20.736328 19.322266 C 22.148986 17.597385 23 15.396508 23 13 C 23 7.4889971 18.511003 3 13 3 z M 13 5 C 17.430123 5 21 8.5698774 21 13 C 21 17.430123 17.430123 21 13 21 C 8.5698774 21 5 17.430123 5 13 C 5 8.5698774 8.5698774 5 13 5 z" />
  <path
     id="path12"
     d="m 25.6125,26.890942 c -0.150081,-0.0717 -0.793675,-0.696528 -3.224913,-3.130884 -1.670577,-1.672719 -3.047159,-3.041308 -3.05907,-3.041308 -0.01191,0 -0.121638,0.07851 -0.243837,0.174478 -1.304381,1.024334 -3.013409,1.739065 -4.79718,2.006224 -0.455039,0.06815 -2.132461,0.06815 -2.5875,0 C 9.904536,22.630541 8.3922428,22.003987 6.9672184,20.938626 6.4532015,20.554343 5.4302371,19.524057 5.0331505,18.990717 2.7653982,15.944821 2.3854094,12.029746 4.0307163,8.6625 4.5632225,7.5726859 5.1007626,6.8203207 5.9606849,5.9612311 6.8263965,5.0963577 7.6239675,4.5281489 8.7,4.0096774 c 1.460715,-0.7038257 3.008903,-1.0338149 4.59375,-0.9791373 2.11345,0.072915 4.012461,0.7405816 5.7,2.0040439 0.531692,0.3980786 1.566075,1.4259509 1.944876,1.9326344 1.065361,1.4250243 1.691915,2.9373176 1.960826,4.7327816 0.03225,0.215343 0.05055,0.683611 0.05055,1.29375 0,0.999658 -0.02407,1.257899 -0.193943,2.08125 -0.276937,1.342235 -1.014053,2.928853 -1.862829,4.00968 -0.09596,0.122199 -0.174478,0.231925 -0.174478,0.243837 0,0.01191 1.368589,1.388493 3.041308,3.05907 3.324042,3.319784 3.22012,3.202356 3.220826,3.639425 0.0011,0.704254 -0.732751,1.167594 -1.368384,0.86393 z M 13.765362,20.978888 c 1.868372,-0.18181 3.595775,-0.993239 4.908031,-2.305495 1.681107,-1.681107 2.537968,-4.070679 2.307503,-6.435045 C 20.854178,10.938342 20.389326,9.6191966 19.688073,8.5696072 18.400702,6.6427578 16.442189,5.4046192 14.1375,5.06063 13.575056,4.9766817 12.479069,4.9759041 11.894353,5.0590385 8.3151184,5.5679307 5.5681928,8.3148439 5.059007,11.894353 4.975383,12.48222 4.975964,13.577079 5.060197,14.1375 c 0.2072238,1.378693 0.7363478,2.644715 1.5629004,3.739512 0.3309263,0.438324 1.1071245,1.203471 1.5661875,1.543889 1.6139014,1.196791 3.5961781,1.75065 5.5760771,1.557987 z"
     style="fill:#008000;stroke-width:0.0375" />
</svg>
